<mxfile host="app.diagrams.net" modified="2022-05-09T12:53:46.456Z" agent="5.0 (Windows NT 10.0; Win64; x64) AppleWebKit/537.36 (KHTML, like Gecko) Chrome/98.0.4758.102 Safari/537.36 Edg/98.0.1108.62" etag="iXCdvwSk7TucCgfV4--U" version="18.0.2" type="github">
  <diagram name="Page-1" id="e7e014a7-5840-1c2e-5031-d8a46d1fe8dd">
    <mxGraphModel dx="1422" dy="1620" grid="1" gridSize="10" guides="1" tooltips="1" connect="1" arrows="1" fold="1" page="1" pageScale="1" pageWidth="1169" pageHeight="826" background="none" math="0" shadow="0">
      <root>
        <mxCell id="0" />
        <mxCell id="1" parent="0" />
        <mxCell id="XczygdeK2oJh0JfADrBz-80" value="MySQL" style="swimlane;rounded=0;fontSize=15;fillColor=#FFFFFF;startSize=23;fontStyle=0" vertex="1" parent="1">
          <mxGeometry x="290" y="120" width="457" height="100" as="geometry" />
        </mxCell>
        <mxCell id="XczygdeK2oJh0JfADrBz-41" value="Querying" style="swimlane;horizontal=0;rotation=-180;fontStyle=1" vertex="1" parent="1">
          <mxGeometry x="290" y="-60" width="480" height="180" as="geometry" />
        </mxCell>
        <mxCell id="XczygdeK2oJh0JfADrBz-75" value="Colaboratory" style="swimlane;rounded=0;fontSize=15;fillColor=#FFFFFF;startSize=23;fontStyle=0" vertex="1" parent="XczygdeK2oJh0JfADrBz-41">
          <mxGeometry x="230" width="227" height="180" as="geometry" />
        </mxCell>
        <mxCell id="XczygdeK2oJh0JfADrBz-79" value="" style="edgeStyle=orthogonalEdgeStyle;rounded=0;orthogonalLoop=1;jettySize=auto;html=1;fontSize=15;" edge="1" parent="XczygdeK2oJh0JfADrBz-75" source="XczygdeK2oJh0JfADrBz-77" target="XczygdeK2oJh0JfADrBz-49">
          <mxGeometry relative="1" as="geometry" />
        </mxCell>
        <mxCell id="XczygdeK2oJh0JfADrBz-77" value="&lt;b style=&quot;font-size: 15px;&quot;&gt;&lt;font style=&quot;font-size: 15px;&quot;&gt;MIMIC III&lt;br&gt;Clinical Database&lt;/font&gt;&lt;/b&gt;" style="whiteSpace=wrap;html=1;rounded=1;shadow=1;strokeWidth=1;fontSize=16;align=center;fillColor=#F5F5F5;strokeColor=#666666;" vertex="1" parent="XczygdeK2oJh0JfADrBz-75">
          <mxGeometry x="14.5" y="40" width="191" height="44.5" as="geometry" />
        </mxCell>
        <mxCell id="XczygdeK2oJh0JfADrBz-49" value="&lt;font style=&quot;font-size: 14px;&quot;&gt;Waveform Segments &lt;br&gt;with &#39;PLETH&#39; data&lt;/font&gt;" style="whiteSpace=wrap;html=1;rounded=1;shadow=1;strokeWidth=1;fontSize=16;align=center;fillColor=#F5F5F5;strokeColor=#666666;fontStyle=1" vertex="1" parent="XczygdeK2oJh0JfADrBz-75">
          <mxGeometry x="10" y="110" width="200" height="45" as="geometry" />
        </mxCell>
        <mxCell id="XczygdeK2oJh0JfADrBz-74" value="BigQuery" style="swimlane;rounded=0;fontSize=15;fillColor=#FFFFFF;startSize=23;fontStyle=0" vertex="1" parent="XczygdeK2oJh0JfADrBz-41">
          <mxGeometry width="230" height="180" as="geometry" />
        </mxCell>
        <mxCell id="XczygdeK2oJh0JfADrBz-48" value="&lt;b&gt;&lt;font style=&quot;font-size: 16px;&quot;&gt;Invasive BGL Measurements&lt;/font&gt;&lt;/b&gt;" style="whiteSpace=wrap;html=1;rounded=1;shadow=1;strokeWidth=1;fontSize=16;align=center;fillColor=#F5F5F5;strokeColor=#666666;" vertex="1" parent="XczygdeK2oJh0JfADrBz-74">
          <mxGeometry x="15" y="110" width="200" height="45" as="geometry" />
        </mxCell>
        <mxCell id="XczygdeK2oJh0JfADrBz-42" value="&lt;b style=&quot;font-size: 15px;&quot;&gt;&lt;font style=&quot;font-size: 15px;&quot;&gt;MIMIC III&lt;br&gt;Clinical Database&lt;/font&gt;&lt;/b&gt;" style="whiteSpace=wrap;html=1;rounded=1;shadow=1;strokeWidth=1;fontSize=16;align=center;fillColor=#f5f5f5;strokeColor=#666666;" vertex="1" parent="XczygdeK2oJh0JfADrBz-74">
          <mxGeometry x="19.5" y="40" width="191" height="44.5" as="geometry" />
        </mxCell>
        <mxCell id="XczygdeK2oJh0JfADrBz-76" style="edgeStyle=orthogonalEdgeStyle;rounded=0;orthogonalLoop=1;jettySize=auto;html=1;entryX=0.5;entryY=0;entryDx=0;entryDy=0;fontSize=15;" edge="1" parent="XczygdeK2oJh0JfADrBz-74" source="XczygdeK2oJh0JfADrBz-42" target="XczygdeK2oJh0JfADrBz-48">
          <mxGeometry relative="1" as="geometry" />
        </mxCell>
        <mxCell id="XczygdeK2oJh0JfADrBz-69" value="Signal Processing" style="swimlane;horizontal=0;rotation=-180;startSize=23;fontStyle=1" vertex="1" parent="1">
          <mxGeometry x="290" y="320" width="480" height="300" as="geometry" />
        </mxCell>
        <mxCell id="XczygdeK2oJh0JfADrBz-90" value="MATLAB" style="swimlane;rounded=0;fontSize=15;fillColor=#FFFFFF;fontStyle=0" vertex="1" parent="XczygdeK2oJh0JfADrBz-69">
          <mxGeometry width="457" height="100" as="geometry" />
        </mxCell>
        <mxCell id="XczygdeK2oJh0JfADrBz-91" value="Waveform Filtering" style="whiteSpace=wrap;html=1;rounded=0;shadow=1;strokeWidth=1;fontSize=16;align=center;fillColor=#FFFFFF;strokeColor=#666666;" vertex="1" parent="XczygdeK2oJh0JfADrBz-90">
          <mxGeometry x="240" y="40" width="200" height="45" as="geometry" />
        </mxCell>
        <mxCell id="XczygdeK2oJh0JfADrBz-92" value="Colaboratory" style="swimlane;rounded=0;fontSize=15;fillColor=#FFFFFF;fontStyle=0" vertex="1" parent="XczygdeK2oJh0JfADrBz-69">
          <mxGeometry y="100" width="457" height="100" as="geometry" />
        </mxCell>
        <mxCell id="XczygdeK2oJh0JfADrBz-93" value="&lt;span style=&quot;font-size: 15px;&quot;&gt;Baseline Correction&lt;/span&gt;" style="whiteSpace=wrap;html=1;rounded=0;shadow=1;strokeWidth=1;fontSize=16;align=center;fillColor=#FFFFFF;strokeColor=#666666;" vertex="1" parent="XczygdeK2oJh0JfADrBz-92">
          <mxGeometry x="240" y="40" width="200" height="45" as="geometry" />
        </mxCell>
        <mxCell id="XczygdeK2oJh0JfADrBz-94" value="MATLAB" style="swimlane;rounded=0;fontSize=15;fillColor=#FFFFFF;fontStyle=0" vertex="1" parent="XczygdeK2oJh0JfADrBz-69">
          <mxGeometry y="200" width="457" height="100" as="geometry" />
        </mxCell>
        <mxCell id="XczygdeK2oJh0JfADrBz-71" value="&lt;b&gt;Processed Waveform&lt;/b&gt;" style="whiteSpace=wrap;html=1;rounded=1;shadow=1;strokeWidth=1;fontSize=16;align=center;fillColor=#F5F5F5;strokeColor=#666666;" vertex="1" parent="XczygdeK2oJh0JfADrBz-94">
          <mxGeometry x="240" y="40" width="200" height="45" as="geometry" />
        </mxCell>
        <mxCell id="XczygdeK2oJh0JfADrBz-97" style="edgeStyle=orthogonalEdgeStyle;rounded=0;orthogonalLoop=1;jettySize=auto;html=1;entryX=0.5;entryY=0;entryDx=0;entryDy=0;fontSize=8;" edge="1" parent="XczygdeK2oJh0JfADrBz-69" source="XczygdeK2oJh0JfADrBz-91" target="XczygdeK2oJh0JfADrBz-93">
          <mxGeometry relative="1" as="geometry" />
        </mxCell>
        <mxCell id="XczygdeK2oJh0JfADrBz-98" style="edgeStyle=orthogonalEdgeStyle;rounded=0;orthogonalLoop=1;jettySize=auto;html=1;entryX=0.5;entryY=0;entryDx=0;entryDy=0;fontSize=8;" edge="1" parent="XczygdeK2oJh0JfADrBz-69" source="XczygdeK2oJh0JfADrBz-93" target="XczygdeK2oJh0JfADrBz-71">
          <mxGeometry relative="1" as="geometry" />
        </mxCell>
        <mxCell id="XczygdeK2oJh0JfADrBz-55" value="Matching" style="swimlane;horizontal=0;rotation=-180;startSize=23;fontStyle=1" vertex="1" parent="1">
          <mxGeometry x="290" y="120" width="480" height="100" as="geometry" />
        </mxCell>
        <mxCell id="XczygdeK2oJh0JfADrBz-62" value="Matched Waveform" style="whiteSpace=wrap;html=1;rounded=1;shadow=1;strokeWidth=1;fontSize=16;align=center;fillColor=#F5F5F5;strokeColor=#666666;fontStyle=1" vertex="1" parent="XczygdeK2oJh0JfADrBz-55">
          <mxGeometry x="240" y="40" width="200" height="45" as="geometry" />
        </mxCell>
        <mxCell id="XczygdeK2oJh0JfADrBz-60" value="Matched BGL Measurements" style="whiteSpace=wrap;html=1;rounded=1;shadow=1;strokeWidth=1;fontSize=16;align=center;fillColor=#F5F5F5;strokeColor=#666666;" vertex="1" parent="XczygdeK2oJh0JfADrBz-55">
          <mxGeometry x="15" y="40" width="200" height="45" as="geometry" />
        </mxCell>
        <mxCell id="XczygdeK2oJh0JfADrBz-67" style="edgeStyle=orthogonalEdgeStyle;rounded=0;orthogonalLoop=1;jettySize=auto;html=1;exitX=0.5;exitY=1;exitDx=0;exitDy=0;entryX=0.5;entryY=0;entryDx=0;entryDy=0;fontSize=16;" edge="1" parent="1" source="XczygdeK2oJh0JfADrBz-49" target="XczygdeK2oJh0JfADrBz-62">
          <mxGeometry relative="1" as="geometry" />
        </mxCell>
        <mxCell id="XczygdeK2oJh0JfADrBz-81" style="edgeStyle=orthogonalEdgeStyle;rounded=0;orthogonalLoop=1;jettySize=auto;html=1;exitX=0.5;exitY=1;exitDx=0;exitDy=0;entryX=0.5;entryY=0;entryDx=0;entryDy=0;fontSize=15;" edge="1" parent="1" source="XczygdeK2oJh0JfADrBz-48" target="XczygdeK2oJh0JfADrBz-60">
          <mxGeometry relative="1" as="geometry" />
        </mxCell>
        <mxCell id="XczygdeK2oJh0JfADrBz-82" value="Downloading" style="swimlane;horizontal=0;rotation=-180;startSize=23;fontStyle=1" vertex="1" parent="1">
          <mxGeometry x="290" y="220" width="480" height="100" as="geometry" />
        </mxCell>
        <mxCell id="XczygdeK2oJh0JfADrBz-85" value="Colaboratory" style="swimlane;rounded=0;fontSize=15;fillColor=#FFFFFF;fontStyle=0" vertex="1" parent="XczygdeK2oJh0JfADrBz-82">
          <mxGeometry width="457" height="100" as="geometry" />
        </mxCell>
        <mxCell id="XczygdeK2oJh0JfADrBz-83" value="Raw Waveform Data" style="whiteSpace=wrap;html=1;rounded=1;shadow=1;strokeWidth=1;fontSize=16;align=center;fillColor=#F5F5F5;strokeColor=#666666;fontStyle=1" vertex="1" parent="XczygdeK2oJh0JfADrBz-85">
          <mxGeometry x="240" y="40" width="200" height="45" as="geometry" />
        </mxCell>
        <mxCell id="XczygdeK2oJh0JfADrBz-86" style="edgeStyle=orthogonalEdgeStyle;rounded=0;orthogonalLoop=1;jettySize=auto;html=1;fontSize=15;" edge="1" parent="1" source="XczygdeK2oJh0JfADrBz-62" target="XczygdeK2oJh0JfADrBz-83">
          <mxGeometry relative="1" as="geometry" />
        </mxCell>
        <mxCell id="XczygdeK2oJh0JfADrBz-96" style="edgeStyle=orthogonalEdgeStyle;rounded=0;orthogonalLoop=1;jettySize=auto;html=1;entryX=0.5;entryY=0;entryDx=0;entryDy=0;fontSize=8;" edge="1" parent="1" source="XczygdeK2oJh0JfADrBz-83" target="XczygdeK2oJh0JfADrBz-91">
          <mxGeometry relative="1" as="geometry" />
        </mxCell>
        <mxCell id="XczygdeK2oJh0JfADrBz-108" value="Feature Extraction" style="swimlane;horizontal=0;rounded=0;fontSize=12;fillColor=#FFFFFF;rotation=-180;" vertex="1" parent="1">
          <mxGeometry x="290" y="620" width="480" height="130" as="geometry" />
        </mxCell>
        <mxCell id="XczygdeK2oJh0JfADrBz-109" value="MATLAB" style="swimlane;rounded=0;fontSize=15;fillColor=#FFFFFF;fontStyle=0" vertex="1" parent="XczygdeK2oJh0JfADrBz-108">
          <mxGeometry width="457" height="130" as="geometry" />
        </mxCell>
        <mxCell id="XczygdeK2oJh0JfADrBz-110" value="&lt;b&gt;Features&lt;/b&gt;" style="whiteSpace=wrap;html=1;rounded=1;shadow=1;strokeWidth=1;fontSize=16;align=center;fillColor=#F5F5F5;strokeColor=#666666;" vertex="1" parent="XczygdeK2oJh0JfADrBz-109">
          <mxGeometry x="340" y="53" width="100" height="45" as="geometry" />
        </mxCell>
        <mxCell id="XczygdeK2oJh0JfADrBz-111" style="edgeStyle=orthogonalEdgeStyle;rounded=0;orthogonalLoop=1;jettySize=auto;html=1;fontSize=12;exitX=0.75;exitY=1;exitDx=0;exitDy=0;" edge="1" parent="1" source="XczygdeK2oJh0JfADrBz-71" target="XczygdeK2oJh0JfADrBz-110">
          <mxGeometry relative="1" as="geometry" />
        </mxCell>
        <mxCell id="XczygdeK2oJh0JfADrBz-113" value="Machine Learning" style="swimlane;horizontal=0;rounded=0;fontSize=12;fillColor=#FFFFFF;rotation=-180;" vertex="1" parent="1">
          <mxGeometry x="290" y="750" width="480" height="180" as="geometry" />
        </mxCell>
        <mxCell id="XczygdeK2oJh0JfADrBz-114" value="Colaboratory + Burgundy HPC" style="swimlane;rounded=0;fontSize=15;fillColor=#FFFFFF;fontStyle=0" vertex="1" parent="XczygdeK2oJh0JfADrBz-113">
          <mxGeometry width="457" height="180" as="geometry" />
        </mxCell>
        <mxCell id="XczygdeK2oJh0JfADrBz-116" value="Regression" style="whiteSpace=wrap;html=1;rounded=0;shadow=1;strokeWidth=1;fontSize=16;align=center;fillColor=#FFFFFF;strokeColor=#666666;" vertex="1" parent="XczygdeK2oJh0JfADrBz-114">
          <mxGeometry x="129" y="43" width="200" height="45" as="geometry" />
        </mxCell>
        <mxCell id="XczygdeK2oJh0JfADrBz-117" value="Classification" style="whiteSpace=wrap;html=1;rounded=0;shadow=1;strokeWidth=1;fontSize=16;align=center;fillColor=#FFFFFF;strokeColor=#666666;" vertex="1" parent="XczygdeK2oJh0JfADrBz-114">
          <mxGeometry x="128.5" y="110" width="200" height="45" as="geometry" />
        </mxCell>
        <mxCell id="XczygdeK2oJh0JfADrBz-118" style="edgeStyle=orthogonalEdgeStyle;rounded=0;orthogonalLoop=1;jettySize=auto;html=1;exitX=0.5;exitY=1;exitDx=0;exitDy=0;entryX=1;entryY=0.5;entryDx=0;entryDy=0;fontSize=15;" edge="1" parent="1" source="XczygdeK2oJh0JfADrBz-110" target="XczygdeK2oJh0JfADrBz-117">
          <mxGeometry relative="1" as="geometry" />
        </mxCell>
        <mxCell id="XczygdeK2oJh0JfADrBz-119" style="edgeStyle=orthogonalEdgeStyle;rounded=0;orthogonalLoop=1;jettySize=auto;html=1;exitX=0.25;exitY=1;exitDx=0;exitDy=0;entryX=0;entryY=0.5;entryDx=0;entryDy=0;fontSize=15;" edge="1" parent="1" source="XczygdeK2oJh0JfADrBz-60" target="XczygdeK2oJh0JfADrBz-117">
          <mxGeometry relative="1" as="geometry" />
        </mxCell>
        <mxCell id="XczygdeK2oJh0JfADrBz-120" style="edgeStyle=orthogonalEdgeStyle;rounded=0;orthogonalLoop=1;jettySize=auto;html=1;exitX=0.75;exitY=1;exitDx=0;exitDy=0;entryX=0;entryY=0.5;entryDx=0;entryDy=0;fontSize=15;" edge="1" parent="1" source="XczygdeK2oJh0JfADrBz-60" target="XczygdeK2oJh0JfADrBz-116">
          <mxGeometry relative="1" as="geometry">
            <Array as="points">
              <mxPoint x="455" y="735" />
              <mxPoint x="399" y="735" />
              <mxPoint x="399" y="815" />
            </Array>
          </mxGeometry>
        </mxCell>
        <mxCell id="XczygdeK2oJh0JfADrBz-122" style="edgeStyle=orthogonalEdgeStyle;rounded=0;orthogonalLoop=1;jettySize=auto;html=1;exitX=0.25;exitY=1;exitDx=0;exitDy=0;entryX=1;entryY=0.5;entryDx=0;entryDy=0;fontSize=15;" edge="1" parent="1">
          <mxGeometry relative="1" as="geometry">
            <mxPoint x="580" y="607" as="sourcePoint" />
            <mxPoint x="619.0000000000002" y="817.5" as="targetPoint" />
            <Array as="points">
              <mxPoint x="580" y="735" />
              <mxPoint x="639" y="735" />
              <mxPoint x="639" y="818" />
            </Array>
          </mxGeometry>
        </mxCell>
      </root>
    </mxGraphModel>
  </diagram>
</mxfile>
